<svg width="31" height="31" viewBox="0 0 31 31" fill="none" xmlns="http://www.w3.org/2000/svg">
<path fill-rule="evenodd" clip-rule="evenodd" d="M23.1394 26.9489C23.1394 24.8971 24.8027 23.2337 26.8546 23.2337C28.9064 23.2337 30.5697 24.8971 30.5697 26.9489C30.5697 29.0007 28.9064 30.6641 26.8546 30.6641C24.8027 30.6641 23.1394 29.0007 23.1394 26.9489ZM11.9939 26.9489C11.9939 24.8971 13.6572 23.2337 15.7091 23.2337C17.7609 23.2337 19.4242 24.8971 19.4242 26.9489C19.4242 29.0007 17.7609 30.6641 15.7091 30.6641C13.6572 30.6641 11.9939 29.0007 11.9939 26.9489ZM0.848389 26.9489C0.848389 24.8971 2.51173 23.2337 4.56356 23.2337C6.61539 23.2337 8.27873 24.8971 8.27873 26.9489C8.27873 29.0007 6.61539 30.6641 4.56356 30.6641C2.51173 30.6641 0.848389 29.0007 0.848389 26.9489ZM23.1394 15.8034C23.1394 13.7516 24.8027 12.0882 26.8546 12.0882C28.9064 12.0882 30.5697 13.7516 30.5697 15.8034C30.5697 17.8552 28.9064 19.5186 26.8546 19.5186C24.8027 19.5186 23.1394 17.8552 23.1394 15.8034ZM11.9939 15.8034C11.9939 13.7516 13.6572 12.0882 15.7091 12.0882C17.7609 12.0882 19.4242 13.7516 19.4242 15.8034C19.4242 17.8552 17.7609 19.5186 15.7091 19.5186C13.6572 19.5186 11.9939 17.8552 11.9939 15.8034ZM0.848389 15.8034C0.848389 13.7516 2.51173 12.0882 4.56356 12.0882C6.61539 12.0882 8.27873 13.7516 8.27873 15.8034C8.27873 17.8552 6.61539 19.5186 4.56356 19.5186C2.51173 19.5186 0.848389 17.8552 0.848389 15.8034ZM23.1394 4.65789C23.1394 2.60606 24.8027 0.942719 26.8546 0.942719C28.9064 0.942719 30.5697 2.60606 30.5697 4.65789C30.5697 6.70972 28.9064 8.37306 26.8546 8.37306C24.8027 8.37306 23.1394 6.70972 23.1394 4.65789ZM11.9939 4.65789C11.9939 2.60606 13.6572 0.942719 15.7091 0.942719C17.7609 0.942719 19.4242 2.60606 19.4242 4.65789C19.4242 6.70972 17.7609 8.37306 15.7091 8.37306C13.6572 8.37306 11.9939 6.70972 11.9939 4.65789ZM0.848389 4.65789C0.848389 2.60606 2.51173 0.942719 4.56356 0.942719C6.61539 0.942719 8.27873 2.60606 8.27873 4.65789C8.27873 6.70972 6.61539 8.37306 4.56356 8.37306C2.51173 8.37306 0.848389 6.70972 0.848389 4.65789Z" fill="#E5E5E5"/>
</svg>
