<svg width="18" height="14" viewBox="0 0 18 14" fill="none" xmlns="http://www.w3.org/2000/svg">
<path d="M5.13386 5.5C4.52597 5.5 4.03485 5.94687 4.03485 6.5C4.03485 7.05313 4.52597 7.5 5.13386 7.5C5.74175 7.5 6.23287 7.05313 6.23287 6.5C6.23287 5.94687 5.74175 5.5 5.13386 5.5ZM8.98039 5.5C8.3725 5.5 7.88138 5.94687 7.88138 6.5C7.88138 7.05313 8.3725 7.5 8.98039 7.5C9.58828 7.5 10.0794 7.05313 10.0794 6.5C10.0794 5.94687 9.58828 5.5 8.98039 5.5ZM12.8269 5.5C12.219 5.5 11.7279 5.94687 11.7279 6.5C11.7279 7.05313 12.219 7.5 12.8269 7.5C13.4348 7.5 13.9259 7.05313 13.9259 6.5C13.9259 5.94687 13.4348 5.5 12.8269 5.5ZM8.98039 0C4.12414 0 0.188315 2.90937 0.188315 6.5C0.188315 7.9875 0.871761 9.35 2.00512 10.4469C1.49339 11.6781 0.428723 12.7219 0.411551 12.7344C0.18488 12.9531 0.123061 13.2719 0.253568 13.5469C0.384076 13.8219 0.682869 14 1.01257 14C3.12473 14 4.79042 13.1969 5.78983 12.5531C6.78237 12.8375 7.85391 13 8.98039 13C13.8366 13 17.7725 10.0906 17.7725 6.5C17.7725 2.90937 13.8366 0 8.98039 0ZM8.98039 11.5C8.06341 11.5 7.15672 11.3719 6.28782 11.1219L5.50821 10.8969L4.8385 11.3281C4.34738 11.6438 3.67424 11.9969 2.86372 12.2344C3.11443 11.8562 3.35827 11.4312 3.54716 10.9781L3.91121 10.1L3.20372 9.41875C2.5821 8.81562 1.83683 7.81875 1.83683 6.5C1.83683 3.74375 5.04113 1.5 8.98039 1.5C12.9197 1.5 16.124 3.74375 16.124 6.5C16.124 9.25625 12.9197 11.5 8.98039 11.5Z" fill="white"/>
</svg>
