<svg width="28" height="28" viewBox="0 0 28 28" fill="none" xmlns="http://www.w3.org/2000/svg">
<g clip-path="url(#clip0_12_260)">
<path d="M16.4587 1.8375C15.736 -0.6125 12.264 -0.6125 11.5412 1.8375L11.3663 2.4325C11.2583 2.79929 11.0695 3.13726 10.8139 3.42162C10.5583 3.70598 10.2423 3.92953 9.88907 4.07586C9.53582 4.2222 9.1543 4.28761 8.77248 4.2673C8.39066 4.24699 8.01823 4.14148 7.6825 3.9585L7.14 3.661C4.89475 2.4395 2.4395 4.89475 3.66275 7.13825L3.9585 7.6825C4.739 9.1175 3.99875 10.9043 2.4325 11.3663L1.8375 11.5412C-0.6125 12.264 -0.6125 15.736 1.8375 16.4587L2.4325 16.6338C2.79929 16.7417 3.13726 16.9305 3.42162 17.1861C3.70598 17.4417 3.92953 17.7577 4.07586 18.1109C4.2222 18.4642 4.28761 18.8457 4.2673 19.2275C4.24699 19.6093 4.14148 19.9818 3.9585 20.3175L3.661 20.86C2.4395 23.1052 4.89475 25.5605 7.13825 24.3372L7.6825 24.0415C8.01823 23.8585 8.39066 23.753 8.77248 23.7327C9.1543 23.7124 9.53582 23.7778 9.88907 23.9241C10.2423 24.0705 10.5583 24.294 10.8139 24.5784C11.0695 24.8627 11.2583 25.2007 11.3663 25.5675L11.5412 26.1625C12.264 28.6125 15.736 28.6125 16.4587 26.1625L16.6338 25.5675C16.7417 25.2007 16.9305 24.8627 17.1861 24.5784C17.4417 24.294 17.7577 24.0705 18.1109 23.9241C18.4642 23.7778 18.8457 23.7124 19.2275 23.7327C19.6093 23.753 19.9818 23.8585 20.3175 24.0415L20.86 24.339C23.1052 25.5605 25.5605 23.1052 24.3372 20.8617L24.0415 20.3175C23.8585 19.9818 23.753 19.6093 23.7327 19.2275C23.7124 18.8457 23.7778 18.4642 23.9241 18.1109C24.0705 17.7577 24.294 17.4417 24.5784 17.1861C24.8627 16.9305 25.2007 16.7417 25.5675 16.6338L26.1625 16.4587C28.6125 15.736 28.6125 12.264 26.1625 11.5412L25.5675 11.3663C25.2007 11.2583 24.8627 11.0695 24.5784 10.8139C24.294 10.5583 24.0705 10.2423 23.9241 9.88907C23.7778 9.53582 23.7124 9.1543 23.7327 8.77248C23.753 8.39066 23.8585 8.01823 24.0415 7.6825L24.339 7.14C25.5605 4.89475 23.1052 2.4395 20.8617 3.66275L20.3175 3.9585C19.9818 4.14148 19.6093 4.24699 19.2275 4.2673C18.8457 4.28761 18.4642 4.2222 18.1109 4.07586C17.7577 3.92953 17.4417 3.70598 17.1861 3.42162C16.9305 3.13726 16.7417 2.79929 16.6338 2.4325L16.4587 1.8375ZM14 19.1275C12.6401 19.1275 11.3359 18.5873 10.3743 17.6257C9.41272 16.6641 8.8725 15.3599 8.8725 14C8.8725 12.6401 9.41272 11.3359 10.3743 10.3743C11.3359 9.41272 12.6401 8.8725 14 8.8725C15.3594 8.8725 16.6632 9.41253 17.6245 10.3738C18.5857 11.3351 19.1257 12.6388 19.1257 13.9983C19.1257 15.3577 18.5857 16.6614 17.6245 17.6227C16.6632 18.584 15.3594 19.124 14 19.124V19.1275Z" fill="#E5E5E5"/>
</g>
<defs>
<clipPath id="clip0_12_260">
<rect width="28" height="28" fill="white"/>
</clipPath>
</defs>
</svg>
