<svg width="26" height="26" viewBox="0 0 26 26" fill="none" xmlns="http://www.w3.org/2000/svg">
<path d="M4.0625 14.2187C4.7356 14.2187 5.28125 13.6731 5.28125 13C5.28125 12.3269 4.7356 11.7812 4.0625 11.7812C3.3894 11.7812 2.84375 12.3269 2.84375 13C2.84375 13.6731 3.3894 14.2187 4.0625 14.2187Z" stroke="#8F8F8F" stroke-width="1.78125" stroke-linecap="round" stroke-linejoin="round"/>
<path d="M13 14.2187C13.6731 14.2187 14.2187 13.6731 14.2187 13C14.2187 12.3269 13.6731 11.7812 13 11.7812C12.3269 11.7812 11.7812 12.3269 11.7812 13C11.7812 13.6731 12.3269 14.2187 13 14.2187Z" stroke="#8F8F8F" stroke-width="1.78125" stroke-linecap="round" stroke-linejoin="round"/>
<path d="M21.9375 14.2187C22.6106 14.2187 23.1562 13.6731 23.1562 13C23.1562 12.3269 22.6106 11.7812 21.9375 11.7812C21.2644 11.7812 20.7188 12.3269 20.7188 13C20.7188 13.6731 21.2644 14.2187 21.9375 14.2187Z" stroke="#8F8F8F" stroke-width="1.78125" stroke-linecap="round" stroke-linejoin="round"/>
</svg>
