<svg width="22" height="13" viewBox="0 0 22 13" fill="none" xmlns="http://www.w3.org/2000/svg">
<path d="M20.4166 5.5L19.1666 6.25V3.82143C19.1666 2.9881 18.8194 2.26786 18.1249 1.66071C17.4305 1.05357 16.5972 0.75 15.6249 0.75H6.70828C5.73605 0.75 4.90272 1.05357 4.20828 1.66071C3.51383 2.26786 3.16661 2.9881 3.16661 3.82143C3.16661 4.03571 3.24994 4.21429 3.41661 4.35714C3.58328 4.5 3.79161 4.57143 4.04161 4.57143C4.31939 4.57143 4.54161 4.5 4.70828 4.35714C4.87494 4.21429 4.95828 4.03571 4.95828 3.82143C4.95828 3.39286 5.13189 3.02976 5.47911 2.73214C5.82633 2.43452 6.23605 2.28571 6.70828 2.28571H15.6249C16.0972 2.28571 16.5069 2.43452 16.8541 2.73214C17.2013 3.02976 17.3749 3.39286 17.3749 3.82143V6.17857L16.1249 5.39286C15.5972 5.13095 15.1944 5.21429 14.9166 5.64286C14.5833 6.09524 14.6666 6.45238 15.1666 6.71429L18.2916 8.39286L21.4583 6.71429C21.9305 6.45238 22.0277 6.09524 21.7499 5.64286C21.3333 5.28571 20.8888 5.2381 20.4166 5.5ZM18.2916 9.14286C18.0138 9.14286 17.7916 9.21429 17.6249 9.35714C17.4583 9.5 17.3749 9.67857 17.3749 9.89286C17.3749 10.3214 17.2013 10.6845 16.8541 10.9821C16.5069 11.2798 16.0972 11.4286 15.6249 11.4286H6.70828C6.23605 11.4286 5.82633 11.2798 5.47911 10.9821C5.13189 10.6845 4.95828 10.3214 4.95828 9.89286V7.53571L6.20828 8.32143C6.26383 8.32143 6.34717 8.33333 6.45828 8.35714C6.56939 8.38095 6.65272 8.39286 6.70828 8.39286C6.9305 8.39286 7.16661 8.28571 7.41661 8.07143C7.74994 7.61905 7.66661 7.26191 7.16661 7L4.04161 5.32143L0.874943 7C0.402721 7.26191 0.305498 7.61905 0.583276 8.07143C0.888832 8.47619 1.3055 8.55952 1.83328 8.32143L3.08328 7.53571V9.89286C3.08328 10.7262 3.4305 11.4464 4.12494 12.0536C4.81939 12.6607 5.65272 12.9643 6.62494 12.9643H15.5416C16.5138 12.9643 17.3472 12.6607 18.0416 12.0536C18.7361 11.4464 19.0833 10.7262 19.0833 9.89286C19.1111 9.67857 19.0486 9.5 18.8958 9.35714C18.743 9.21429 18.5416 9.14286 18.2916 9.14286Z" fill="white"/>
</svg>
