<svg width="14" height="17" viewBox="0 0 14 17" fill="none" xmlns="http://www.w3.org/2000/svg">
<path d="M12.7282 7.70837C12.9264 7.7084 13.1177 7.77959 13.2658 7.90844C13.414 8.03729 13.5086 8.21484 13.5318 8.40742L13.5374 8.50004V13.25C13.5374 14.0625 13.2182 14.8438 12.6459 15.4325C12.0735 16.0212 11.2917 16.3721 10.4623 16.4128L10.3004 16.4167H3.82957C2.99907 16.4167 2.20034 16.1044 1.59859 15.5445C0.996839 14.9846 0.6381 14.2198 0.596576 13.4084L0.592529 13.25V8.50004C0.592758 8.29826 0.671739 8.10418 0.813334 7.95746C0.95493 7.81073 1.14845 7.72244 1.35436 7.71061C1.56027 7.69879 1.76302 7.76432 1.9212 7.89383C2.07937 8.02334 2.18102 8.20705 2.20538 8.40742L2.21105 8.50004V13.25C2.21112 13.6494 2.36543 14.0339 2.64306 14.3266C2.92069 14.6194 3.30113 14.7987 3.70818 14.8286L3.82957 14.8334H10.3004C10.7086 14.8333 11.1017 14.6823 11.4009 14.4108C11.7002 14.1392 11.8835 13.767 11.9141 13.3688L11.9189 13.25V8.50004C11.9189 8.29008 12.0042 8.08871 12.1559 7.94025C12.3077 7.79178 12.5136 7.70837 12.7282 7.70837V7.70837ZM2.44492 4.77129L6.48879 0.815333C6.62804 0.67891 6.81339 0.596881 7.01006 0.584637C7.20673 0.572394 7.40121 0.630777 7.55701 0.748833L7.63308 0.814541L11.6818 4.7705C11.8272 4.91283 11.9118 5.104 11.9183 5.30513C11.9248 5.50626 11.8527 5.70226 11.7168 5.85329C11.5808 6.00432 11.3912 6.09904 11.1864 6.1182C10.9817 6.13735 10.7771 6.07951 10.6144 5.95642L10.5383 5.89071L7.87263 3.28692V11.0769C7.8726 11.2708 7.79983 11.458 7.66811 11.6029C7.5364 11.7478 7.3549 11.8404 7.15805 11.863L7.06337 11.8686C6.86515 11.8686 6.67384 11.7974 6.52572 11.6685C6.37759 11.5397 6.28296 11.3621 6.25977 11.1695L6.25411 11.0769V3.28296L3.58922 5.89071C3.44987 6.02701 3.26447 6.1089 3.0678 6.121C2.87112 6.13309 2.6767 6.07457 2.52099 5.95642L2.44492 5.89071C2.30559 5.75439 2.22189 5.57302 2.20952 5.38062C2.19715 5.18823 2.25697 4.99803 2.37775 4.84571L2.44492 4.7705L6.48879 0.815333L2.44573 4.7705L2.44492 4.77129Z" fill="white"/>
</svg>
