<svg width="58" height="58" viewBox="0 0 58 58" fill="none" xmlns="http://www.w3.org/2000/svg">
<g clip-path="url(#clip0_17_46)">
<rect width="58" height="58" rx="12" fill="#224957"/>
<path d="M28.1805 9.30093C27.843 9.39806 27.5538 10.1266 27.5538 10.8551C27.5538 11.7293 27.1199 12.5063 26.1558 13.2348C24.3721 14.5462 23.8419 16.7317 24.8542 18.6743C25.5291 20.0828 25.4809 20.4228 23.6008 25.668L21.6243 31.156L18.7319 31.1075C15.6949 31.0589 14.5379 31.7874 15.1646 33.4387C15.4057 34.0215 16.0806 34.2158 17.9124 34.2158C19.214 34.2158 20.3228 34.3129 20.3228 34.4586C20.3228 34.6043 19.455 37.0326 18.3945 39.8981L16.4662 45.0947L17.2375 47.4745L18.0088 49.9029L20.9977 42.035L23.9383 34.2158H25.7219C27.3128 34.2158 27.5056 34.3615 27.6502 35.5271C27.843 37.5183 30.157 37.5183 30.3498 35.5271C30.4944 34.3615 30.6872 34.2158 32.2781 34.2158H34.0617L37.0023 42.0836L39.9912 50L40.7143 47.426L41.4856 44.9005L39.5573 39.8009C38.545 36.9841 37.6772 34.6043 37.6772 34.4586C37.6772 34.3129 38.786 34.2158 40.0876 34.2158C41.9194 34.2158 42.5943 34.0215 42.8354 33.4387C43.4621 31.7874 42.3051 31.0589 39.2681 31.1075L36.3757 31.156L34.3992 25.7165C32.4227 20.4713 32.3745 20.2285 33.1458 18.7715C34.1581 16.7317 33.6279 14.5462 31.8442 13.2348C30.8801 12.5063 30.4462 11.7293 30.4462 10.8551C30.4462 10.1266 30.1088 9.44663 29.6749 9.25236C29.241 9.10666 28.9036 8.96096 28.8554 9.00953C28.8072 9.00953 28.4697 9.15523 28.1805 9.30093ZM30.2052 16.7317C30.2052 17.6059 29.9159 17.9944 29.0964 18.0915C27.9394 18.2858 27.2646 17.2173 27.7466 15.9546C27.8912 15.5175 28.4697 15.2747 29.0964 15.3718C29.9159 15.4689 30.2052 15.8575 30.2052 16.7317ZM30.7354 25.6194C31.555 27.8049 32.3745 29.9904 32.6155 30.4275C32.9048 31.156 32.7119 31.3017 31.7478 31.3017C30.6872 31.3017 30.4944 31.0589 30.3498 29.699C30.2534 28.3877 30.0123 28.1449 29 28.1449C27.9877 28.1449 27.7466 28.3877 27.6502 29.699C27.5056 31.0589 27.3128 31.3017 26.2522 31.3017C25.2881 31.3017 25.0952 31.156 25.3845 30.4275C25.6255 29.9904 26.445 27.8049 27.2646 25.6194C28.0841 23.3853 28.8554 21.5884 29 21.5884C29.1446 21.5884 29.9159 23.3853 30.7354 25.6194ZM24.1793 31.6903C24.1793 32.3702 22.2992 33.9244 21.9136 33.5844C21.769 33.3901 22.01 32.8073 22.4921 32.2731C23.408 31.2532 24.1793 31.0103 24.1793 31.6903ZM35.5079 32.2731C35.99 32.8073 36.231 33.3901 36.0864 33.5844C35.7008 33.9244 33.8207 32.3702 33.8207 31.6903C33.8207 31.0103 34.592 31.2532 35.5079 32.2731Z" fill="#20DF7F"/>
</g>
<defs>
<clipPath id="clip0_17_46">
<rect width="58" height="58" fill="white"/>
</clipPath>
</defs>
</svg>
